{"title":"Cuffs S01E04 x264 RB58.mp4","uid":12789300,"size":648682322,"categoryP":"video","categoryS":"tv_shows","magnet":"?xt=urn:btih:6825dabdc7d465125fdae5a86a95604b4c055e05&amp;dn=Cuffs+S01E04+x264+RB58.mp4&amp;tr=udp%3A%2F%2Ftracker.leechers-paradise.org%3A6969&amp;tr=udp%3A%2F%2Fzer0day.ch%3A1337&amp;tr=udp%3A%2F%2Fopen.demonii.com%3A1337&amp;tr=udp%3A%2F%2Ftracker.coppersurfer.tk%3A6969&amp;tr=udp%3A%2F%2Fexodus.desync.com%3A6969","seeders":1,"leechers":0,"uploader":"RedBaron58","files":1,"time":1447896014,"description":"Cuffs S01E04 x264 mp4\r\n \nhttp://www.imdb.com/title/tt4568288/\r\n\r\nTrailer:\r\n\r\n\r\nPlease be patient My intial upload speed is limited.\r\nThank you for your kind comments and feedback on my other torrents, your feedback is welcome.\r\n\r\n\r\nAbout the Episode:\r\nThe team struggles to cope with a nightmarish Saturday night in Brighton, including a drugs death, \r\na stake-out, and a dog high on cocaine. However, it is a fight in a nightclub that causes professional \r\nproblems for Lino and a personal crisis for Carl. \r\nMeanwhile, Felix uncovers a vicious organised gang after a bungled house robbery, which unites the team \r\nwhen it results in a raid and a high octane chase.\r\n \r\nstarring Ashley Walters and Jacob Ifan\r\n\r\n\r\nI hope you enjoy.\r\n\r\n\r\nTechnical:\r\n\r\nGeneral\r\nComplete name                            : H:Cuffs S01E04 x264 RB58.mp4\r\nFormat                                   : MPEG-4\r\nFormat profile                           : Base Media\r\nCodec ID                                 : isom\r\nFile size                                : 619 MiB\r\nDuration                                 : 56mn 59s\r\nOverall bit rate                         : 1 517 Kbps\r\nWriting application                      : Lavf54.63.104\r\n\r\nVideo\r\nID                                       : 1\r\nFormat                                   : AVC\r\nFormat/Info                              : Advanced Video Codec\r\nFormat profile                           :   \r\nFormat settings, CABAC                   : Yes\r\nFormat settings, ReFrames                : 4 frames\r\nCodec ID                                 : avc1\r\nCodec ID/Info                            : Advanced Video Coding\r\nDuration                                 : 56mn 59s\r\nBit rate                                 : 1 400 Kbps\r\nWidth                                    : 832 pixels\r\nHeight                                   : 468 pixels\r\nDisplay aspect ratio                     : 16:9\r\nFrame rate mode                          : Constant\r\nFrame rate                               : 25.000 fps\r\nColor space                              : YUV\r\nChroma subsampling                       : 4:2:0\r\nBit depth                                : 8 bits\r\nScan type                                : Progressive\r\nBits/(Pixel*Frame)                       : 0.144\r\nStream size                              : 569 MiB (92%)\r\nWriting library                          : x264 core 123 r2189 35cf912\r\nEncoding settings                        : cabac=1 / ref=3 / deblock=1:0:0\r\n\r\nAudio\r\nID                                       : 2\r\nFormat                                   : AAC\r\nFormat/Info                              : Advanced Audio Codec\r\nFormat profile                           : LC\r\nCodec ID                                 : 40\r\nDuration                                 : 56mn 59s\r\nBit rate mode                            : Constant\r\nBit rate                                 : 112 Kbps\r\nChannel(s)                               : 2 channels\r\nChannel positions                        : Front: L R\r\nSampling rate                            : 48.0 KHz\r\nCompression mode                         : Lossy\r\nStream size                              : 45.7 MiB (7%)","torrent":{"xt":"urn:btih:6825dabdc7d465125fdae5a86a95604b4c055e05","amp;dn":"Cuffs+S01E04+x264+RB58.mp4","amp;tr":["udp%3A%2F%2Ftracker.leechers-paradise.org%3A6969","udp%3A%2F%2Fzer0day.ch%3A1337","udp%3A%2F%2Fopen.demonii.com%3A1337","udp%3A%2F%2Ftracker.coppersurfer.tk%3A6969","udp%3A%2F%2Fexodus.desync.com%3A6969"],"infoHash":"6825dabdc7d465125fdae5a86a95604b4c055e05","infoHashBuffer":{"type":"Buffer","data":[104,37,218,189,199,212,101,18,95,218,229,168,106,149,96,75,76,5,94,5]},"announce":[],"urlList":[]}}